<svg width="1920" height="90" viewBox="0 0 1920 90" fill="none" xmlns="http://www.w3.org/2000/svg">
<path d="M646.668 34H645.689V28.3633C645.689 27.918 645.717 27.373 645.771 26.7285H645.748C645.654 27.1074 645.57 27.3789 645.496 27.543L642.625 34H642.145L639.279 27.5898C639.197 27.4023 639.113 27.1152 639.027 26.7285H639.004C639.035 27.0645 639.051 27.6133 639.051 28.375V34H638.102V25.5977H639.402L641.98 31.457C642.18 31.9062 642.309 32.2422 642.367 32.4648H642.402C642.57 32.0039 642.705 31.6602 642.807 31.4336L645.438 25.5977H646.668V34ZM653.576 31.2402H649.34C649.355 31.9082 649.535 32.4238 649.879 32.7871C650.223 33.1504 650.695 33.332 651.297 33.332C651.973 33.332 652.594 33.1094 653.16 32.6641V33.5664C652.633 33.9492 651.936 34.1406 651.068 34.1406C650.221 34.1406 649.555 33.8691 649.07 33.3262C648.586 32.7793 648.344 32.0117 648.344 31.0234C648.344 30.0898 648.607 29.3301 649.135 28.7441C649.666 28.1543 650.324 27.8594 651.109 27.8594C651.895 27.8594 652.502 28.1133 652.932 28.6211C653.361 29.1289 653.576 29.834 653.576 30.7363V31.2402ZM652.592 30.4258C652.588 29.8711 652.453 29.4395 652.188 29.1309C651.926 28.8223 651.561 28.668 651.092 28.668C650.639 28.668 650.254 28.8301 649.938 29.1543C649.621 29.4785 649.426 29.9023 649.352 30.4258H652.592ZM657.818 33.9414C657.592 34.0664 657.293 34.1289 656.922 34.1289C655.871 34.1289 655.346 33.543 655.346 32.3711V28.8203H654.314V28H655.346V26.5352L656.307 26.2246V28H657.818V28.8203H656.307V32.2012C656.307 32.6035 656.375 32.8906 656.512 33.0625C656.648 33.2344 656.875 33.3203 657.191 33.3203C657.434 33.3203 657.643 33.2539 657.818 33.1211V33.9414ZM663.396 34H662.436V33.0625H662.412C661.994 33.7812 661.379 34.1406 660.566 34.1406C659.969 34.1406 659.5 33.9824 659.16 33.666C658.824 33.3496 658.656 32.9297 658.656 32.4062C658.656 31.2852 659.316 30.6328 660.637 30.4492L662.436 30.1973C662.436 29.1777 662.023 28.668 661.199 28.668C660.477 28.668 659.824 28.9141 659.242 29.4062V28.4219C659.832 28.0469 660.512 27.8594 661.281 27.8594C662.691 27.8594 663.396 28.6055 663.396 30.0977V34ZM662.436 30.9648L660.988 31.1641C660.543 31.2266 660.207 31.3379 659.98 31.498C659.754 31.6543 659.641 31.9336 659.641 32.3359C659.641 32.6289 659.744 32.8691 659.951 33.0566C660.162 33.2402 660.441 33.332 660.789 33.332C661.266 33.332 661.658 33.166 661.967 32.834C662.279 32.498 662.436 32.0742 662.436 31.5625V30.9648Z" fill="#8E8E8E"/>
<path d="M688.605 34H687.516L686.625 31.6445H683.062L682.225 34H681.129L684.352 25.5977H685.371L688.605 34ZM686.303 30.7598L684.984 27.1797C684.941 27.0625 684.898 26.875 684.855 26.6172H684.832C684.793 26.8555 684.748 27.043 684.697 27.1797L683.391 30.7598H686.303ZM690.703 33.1328H690.68V34H689.719V25.1172H690.68V29.0547H690.703C691.176 28.2578 691.867 27.8594 692.777 27.8594C693.547 27.8594 694.148 28.1289 694.582 28.668C695.02 29.2031 695.238 29.9219 695.238 30.8242C695.238 31.8281 694.994 32.6328 694.506 33.2383C694.018 33.8398 693.35 34.1406 692.502 34.1406C691.709 34.1406 691.109 33.8047 690.703 33.1328ZM690.68 30.7129V31.5508C690.68 32.0469 690.84 32.4688 691.16 32.8164C691.484 33.1602 691.895 33.332 692.391 33.332C692.973 33.332 693.428 33.1094 693.756 32.6641C694.088 32.2188 694.254 31.5996 694.254 30.8066C694.254 30.1387 694.1 29.6152 693.791 29.2363C693.482 28.8574 693.064 28.668 692.537 28.668C691.979 28.668 691.529 28.8633 691.189 29.2539C690.85 29.6406 690.68 30.127 690.68 30.7129ZM699.281 34.1406C698.395 34.1406 697.686 33.8613 697.154 33.3027C696.627 32.7402 696.363 31.9961 696.363 31.0703C696.363 30.0625 696.639 29.2754 697.189 28.709C697.74 28.1426 698.484 27.8594 699.422 27.8594C700.316 27.8594 701.014 28.1348 701.514 28.6855C702.018 29.2363 702.27 30 702.27 30.9766C702.27 31.9336 701.998 32.7012 701.455 33.2793C700.916 33.8535 700.191 34.1406 699.281 34.1406ZM699.352 28.668C698.734 28.668 698.246 28.8789 697.887 29.3008C697.527 29.7188 697.348 30.2969 697.348 31.0352C697.348 31.7461 697.529 32.3066 697.893 32.7168C698.256 33.127 698.742 33.332 699.352 33.332C699.973 33.332 700.449 33.1309 700.781 32.7285C701.117 32.3262 701.285 31.7539 701.285 31.0117C701.285 30.2617 701.117 29.6836 700.781 29.2773C700.449 28.8711 699.973 28.668 699.352 28.668ZM708.656 34H707.695V33.0508H707.672C707.273 33.7773 706.656 34.1406 705.82 34.1406C704.391 34.1406 703.676 33.2891 703.676 31.5859V28H704.631V31.4336C704.631 32.6992 705.115 33.332 706.084 33.332C706.553 33.332 706.938 33.1602 707.238 32.8164C707.543 32.4688 707.695 32.0156 707.695 31.457V28H708.656V34ZM713.385 33.9414C713.158 34.0664 712.859 34.1289 712.488 34.1289C711.438 34.1289 710.912 33.543 710.912 32.3711V28.8203H709.881V28H710.912V26.5352L711.873 26.2246V28H713.385V28.8203H711.873V32.2012C711.873 32.6035 711.941 32.8906 712.078 33.0625C712.215 33.2344 712.441 33.3203 712.758 33.3203C713 33.3203 713.209 33.2539 713.385 33.1211V33.9414Z" fill="#8E8E8E"/>
<path d="M731.102 34V25.5977H733.492C734.219 25.5977 734.795 25.7754 735.221 26.1309C735.646 26.4863 735.859 26.9492 735.859 27.5195C735.859 27.9961 735.73 28.4102 735.473 28.7617C735.215 29.1133 734.859 29.3633 734.406 29.5117V29.5352C734.973 29.6016 735.426 29.8164 735.766 30.1797C736.105 30.5391 736.275 31.0078 736.275 31.5859C736.275 32.3047 736.018 32.8867 735.502 33.332C734.986 33.7773 734.336 34 733.551 34H731.102ZM732.086 26.4883V29.2012H733.094C733.633 29.2012 734.057 29.0723 734.365 28.8145C734.674 28.5527 734.828 28.1855 734.828 27.7129C734.828 26.8965 734.291 26.4883 733.217 26.4883H732.086ZM732.086 30.0859V33.1094H733.422C734 33.1094 734.447 32.9727 734.764 32.6992C735.084 32.4258 735.244 32.0508 735.244 31.5742C735.244 30.582 734.568 30.0859 733.217 30.0859H732.086ZM738.812 34H737.852V25.1172H738.812V34ZM743.266 34.1406C742.379 34.1406 741.67 33.8613 741.139 33.3027C740.611 32.7402 740.348 31.9961 740.348 31.0703C740.348 30.0625 740.623 29.2754 741.174 28.709C741.725 28.1426 742.469 27.8594 743.406 27.8594C744.301 27.8594 744.998 28.1348 745.498 28.6855C746.002 29.2363 746.254 30 746.254 30.9766C746.254 31.9336 745.982 32.7012 745.439 33.2793C744.9 33.8535 744.176 34.1406 743.266 34.1406ZM743.336 28.668C742.719 28.668 742.23 28.8789 741.871 29.3008C741.512 29.7188 741.332 30.2969 741.332 31.0352C741.332 31.7461 741.514 32.3066 741.877 32.7168C742.24 33.127 742.727 33.332 743.336 33.332C743.957 33.332 744.434 33.1309 744.766 32.7285C745.102 32.3262 745.27 31.7539 745.27 31.0117C745.27 30.2617 745.102 29.6836 744.766 29.2773C744.434 28.8711 743.957 28.668 743.336 28.668ZM752.91 33.5195C752.91 35.7227 751.855 36.8242 749.746 36.8242C749.004 36.8242 748.355 36.6836 747.801 36.4023V35.4414C748.477 35.8164 749.121 36.0039 749.734 36.0039C751.211 36.0039 751.949 35.2188 751.949 33.6484V32.9922H751.926C751.469 33.7578 750.781 34.1406 749.863 34.1406C749.117 34.1406 748.516 33.875 748.059 33.3438C747.605 32.8086 747.379 32.0918 747.379 31.1934C747.379 30.1738 747.623 29.3633 748.111 28.7617C748.604 28.1602 749.275 27.8594 750.127 27.8594C750.936 27.8594 751.535 28.1836 751.926 28.832H751.949V28H752.91V33.5195ZM751.949 31.2871V30.4023C751.949 29.9258 751.787 29.5176 751.463 29.1777C751.143 28.8379 750.742 28.668 750.262 28.668C749.668 28.668 749.203 28.8848 748.867 29.3184C748.531 29.748 748.363 30.3516 748.363 31.1289C748.363 31.7969 748.523 32.332 748.844 32.7344C749.168 33.1328 749.596 33.332 750.127 33.332C750.666 33.332 751.104 33.1406 751.439 32.7578C751.779 32.375 751.949 31.8848 751.949 31.2871Z" fill="#8E8E8E"/>
<path d="M773.252 30.9883C773.252 31.9844 773.041 32.7598 772.619 33.3145C772.197 33.8652 771.633 34.1406 770.926 34.1406C770.598 34.1406 770.328 34.0938 770.117 34V33.0273C770.328 33.1797 770.602 33.2559 770.938 33.2559C771.824 33.2559 772.268 32.5039 772.268 31V25.5977H773.252V30.9883ZM777.77 34.1406C776.883 34.1406 776.174 33.8613 775.643 33.3027C775.115 32.7402 774.852 31.9961 774.852 31.0703C774.852 30.0625 775.127 29.2754 775.678 28.709C776.229 28.1426 776.973 27.8594 777.91 27.8594C778.805 27.8594 779.502 28.1348 780.002 28.6855C780.506 29.2363 780.758 30 780.758 30.9766C780.758 31.9336 780.486 32.7012 779.943 33.2793C779.404 33.8535 778.68 34.1406 777.77 34.1406ZM777.84 28.668C777.223 28.668 776.734 28.8789 776.375 29.3008C776.016 29.7188 775.836 30.2969 775.836 31.0352C775.836 31.7461 776.018 32.3066 776.381 32.7168C776.744 33.127 777.23 33.332 777.84 33.332C778.461 33.332 778.938 33.1309 779.27 32.7285C779.605 32.3262 779.773 31.7539 779.773 31.0117C779.773 30.2617 779.605 29.6836 779.27 29.2773C778.938 28.8711 778.461 28.668 777.84 28.668ZM783.277 33.1328H783.254V34H782.293V25.1172H783.254V29.0547H783.277C783.75 28.2578 784.441 27.8594 785.352 27.8594C786.121 27.8594 786.723 28.1289 787.156 28.668C787.594 29.2031 787.812 29.9219 787.812 30.8242C787.812 31.8281 787.568 32.6328 787.08 33.2383C786.592 33.8398 785.924 34.1406 785.076 34.1406C784.283 34.1406 783.684 33.8047 783.277 33.1328ZM783.254 30.7129V31.5508C783.254 32.0469 783.414 32.4688 783.734 32.8164C784.059 33.1602 784.469 33.332 784.965 33.332C785.547 33.332 786.002 33.1094 786.33 32.6641C786.662 32.2188 786.828 31.5996 786.828 30.8066C786.828 30.1387 786.674 29.6152 786.365 29.2363C786.057 28.8574 785.639 28.668 785.111 28.668C784.553 28.668 784.104 28.8633 783.764 29.2539C783.424 29.6406 783.254 30.127 783.254 30.7129ZM788.984 33.7832V32.752C789.508 33.1387 790.084 33.332 790.713 33.332C791.557 33.332 791.979 33.0508 791.979 32.4883C791.979 32.3281 791.941 32.1934 791.867 32.084C791.797 31.9707 791.699 31.8711 791.574 31.7852C791.453 31.6992 791.309 31.623 791.141 31.5566C790.977 31.4863 790.799 31.4141 790.607 31.3398C790.342 31.2344 790.107 31.1289 789.904 31.0234C789.705 30.9141 789.537 30.793 789.4 30.6602C789.268 30.5234 789.166 30.3691 789.096 30.1973C789.029 30.0254 788.996 29.8242 788.996 29.5938C788.996 29.3125 789.061 29.0645 789.189 28.8496C789.318 28.6309 789.49 28.4492 789.705 28.3047C789.92 28.1562 790.164 28.0449 790.438 27.9707C790.715 27.8965 791 27.8594 791.293 27.8594C791.812 27.8594 792.277 27.9492 792.688 28.1289V29.1016C792.246 28.8125 791.738 28.668 791.164 28.668C790.984 28.668 790.822 28.6895 790.678 28.7324C790.533 28.7715 790.408 28.8281 790.303 28.9023C790.201 28.9766 790.121 29.0664 790.062 29.1719C790.008 29.2734 789.98 29.3867 789.98 29.5117C789.98 29.668 790.008 29.7988 790.062 29.9043C790.121 30.0098 790.205 30.1035 790.314 30.1855C790.424 30.2676 790.557 30.3418 790.713 30.4082C790.869 30.4746 791.047 30.5469 791.246 30.625C791.512 30.7266 791.75 30.832 791.961 30.9414C792.172 31.0469 792.352 31.168 792.5 31.3047C792.648 31.4375 792.762 31.5918 792.84 31.7676C792.922 31.9434 792.963 32.1523 792.963 32.3945C792.963 32.6914 792.896 32.9492 792.764 33.168C792.635 33.3867 792.461 33.5684 792.242 33.7129C792.023 33.8574 791.771 33.9648 791.486 34.0352C791.201 34.1055 790.902 34.1406 790.59 34.1406C789.973 34.1406 789.438 34.0215 788.984 33.7832Z" fill="#8E8E8E"/>
<path d="M817.418 34H816.434V30.168H812.086V34H811.102V25.5977H812.086V29.2832H816.434V25.5977H817.418V34ZM824.314 31.2402H820.078C820.094 31.9082 820.273 32.4238 820.617 32.7871C820.961 33.1504 821.434 33.332 822.035 33.332C822.711 33.332 823.332 33.1094 823.898 32.6641V33.5664C823.371 33.9492 822.674 34.1406 821.807 34.1406C820.959 34.1406 820.293 33.8691 819.809 33.3262C819.324 32.7793 819.082 32.0117 819.082 31.0234C819.082 30.0898 819.346 29.3301 819.873 28.7441C820.404 28.1543 821.062 27.8594 821.848 27.8594C822.633 27.8594 823.24 28.1133 823.67 28.6211C824.1 29.1289 824.314 29.834 824.314 30.7363V31.2402ZM823.33 30.4258C823.326 29.8711 823.191 29.4395 822.926 29.1309C822.664 28.8223 822.299 28.668 821.83 28.668C821.377 28.668 820.992 28.8301 820.676 29.1543C820.359 29.4785 820.164 29.9023 820.09 30.4258H823.33ZM826.734 34H825.773V25.1172H826.734V34ZM829.664 33.1328H829.641V36.7598H828.68V28H829.641V29.0547H829.664C830.137 28.2578 830.828 27.8594 831.738 27.8594C832.512 27.8594 833.115 28.1289 833.549 28.668C833.982 29.2031 834.199 29.9219 834.199 30.8242C834.199 31.8281 833.955 32.6328 833.467 33.2383C832.979 33.8398 832.311 34.1406 831.463 34.1406C830.686 34.1406 830.086 33.8047 829.664 33.1328ZM829.641 30.7129V31.5508C829.641 32.0469 829.801 32.4688 830.121 32.8164C830.445 33.1602 830.855 33.332 831.352 33.332C831.934 33.332 832.389 33.1094 832.717 32.6641C833.049 32.2188 833.215 31.5996 833.215 30.8066C833.215 30.1387 833.061 29.6152 832.752 29.2363C832.443 28.8574 832.025 28.668 831.498 28.668C830.939 28.668 830.49 28.8633 830.15 29.2539C829.811 29.6406 829.641 30.127 829.641 30.7129Z" fill="#8E8E8E"/>
<path d="M858.605 34H857.516L856.625 31.6445H853.062L852.225 34H851.129L854.352 25.5977H855.371L858.605 34ZM856.303 30.7598L854.984 27.1797C854.941 27.0625 854.898 26.875 854.855 26.6172H854.832C854.793 26.8555 854.748 27.043 854.697 27.1797L853.391 30.7598H856.303ZM860.832 30.8242V34H859.848V25.5977H862.156C863.055 25.5977 863.75 25.8164 864.242 26.2539C864.738 26.6914 864.986 27.3086 864.986 28.1055C864.986 28.9023 864.711 29.5547 864.16 30.0625C863.613 30.5703 862.873 30.8242 861.939 30.8242H860.832ZM860.832 26.4883V29.9336H861.863C862.543 29.9336 863.061 29.7793 863.416 29.4707C863.775 29.1582 863.955 28.7188 863.955 28.1523C863.955 27.043 863.299 26.4883 861.986 26.4883H860.832ZM867.559 34H866.574V25.5977H867.559V34Z" fill="#8E8E8E"/>
<path d="M887.086 30.8242V34H886.102V25.5977H888.41C889.309 25.5977 890.004 25.8164 890.496 26.2539C890.992 26.6914 891.24 27.3086 891.24 28.1055C891.24 28.9023 890.965 29.5547 890.414 30.0625C889.867 30.5703 889.127 30.8242 888.193 30.8242H887.086ZM887.086 26.4883V29.9336H888.117C888.797 29.9336 889.314 29.7793 889.67 29.4707C890.029 29.1582 890.209 28.7188 890.209 28.1523C890.209 27.043 889.553 26.4883 888.24 26.4883H887.086ZM895.828 28.9727C895.66 28.8438 895.418 28.7793 895.102 28.7793C894.691 28.7793 894.348 28.9727 894.07 29.3594C893.797 29.7461 893.66 30.2734 893.66 30.9414V34H892.699V28H893.66V29.2363H893.684C893.82 28.8145 894.029 28.4863 894.311 28.252C894.592 28.0137 894.906 27.8945 895.254 27.8945C895.504 27.8945 895.695 27.9219 895.828 27.9766V28.9727ZM897.363 26.4766C897.191 26.4766 897.045 26.418 896.924 26.3008C896.803 26.1836 896.742 26.0352 896.742 25.8555C896.742 25.6758 896.803 25.5273 896.924 25.4102C897.045 25.2891 897.191 25.2285 897.363 25.2285C897.539 25.2285 897.688 25.2891 897.809 25.4102C897.934 25.5273 897.996 25.6758 897.996 25.8555C897.996 26.0273 897.934 26.1738 897.809 26.2949C897.688 26.416 897.539 26.4766 897.363 26.4766ZM897.832 34H896.871V28H897.832V34ZM904.494 28L902.104 34H901.16L898.887 28H899.941L901.465 32.3594C901.578 32.6797 901.648 32.959 901.676 33.1973H901.699C901.738 32.8965 901.801 32.625 901.887 32.3828L903.48 28H904.494ZM909.826 34H908.865V33.0625H908.842C908.424 33.7812 907.809 34.1406 906.996 34.1406C906.398 34.1406 905.93 33.9824 905.59 33.666C905.254 33.3496 905.086 32.9297 905.086 32.4062C905.086 31.2852 905.746 30.6328 907.066 30.4492L908.865 30.1973C908.865 29.1777 908.453 28.668 907.629 28.668C906.906 28.668 906.254 28.9141 905.672 29.4062V28.4219C906.262 28.0469 906.941 27.8594 907.711 27.8594C909.121 27.8594 909.826 28.6055 909.826 30.0977V34ZM908.865 30.9648L907.418 31.1641C906.973 31.2266 906.637 31.3379 906.41 31.498C906.184 31.6543 906.07 31.9336 906.07 32.3359C906.07 32.6289 906.174 32.8691 906.381 33.0566C906.592 33.2402 906.871 33.332 907.219 33.332C907.695 33.332 908.088 33.166 908.396 32.834C908.709 32.498 908.865 32.0742 908.865 31.5625V30.9648ZM915.727 33.7246C915.266 34.002 914.719 34.1406 914.086 34.1406C913.23 34.1406 912.539 33.8633 912.012 33.3086C911.488 32.75 911.227 32.0273 911.227 31.1406C911.227 30.1523 911.51 29.3594 912.076 28.7617C912.643 28.1602 913.398 27.8594 914.344 27.8594C914.871 27.8594 915.336 27.957 915.738 28.1523V29.1367C915.293 28.8242 914.816 28.668 914.309 28.668C913.695 28.668 913.191 28.8887 912.797 29.3301C912.406 29.7676 912.211 30.3438 912.211 31.0586C912.211 31.7617 912.395 32.3164 912.762 32.7227C913.133 33.1289 913.629 33.332 914.25 33.332C914.773 33.332 915.266 33.1582 915.727 32.8105V33.7246ZM921.955 28L919.195 34.9609C918.703 36.2031 918.012 36.8242 917.121 36.8242C916.871 36.8242 916.662 36.7988 916.494 36.748V35.8867C916.701 35.957 916.891 35.9922 917.062 35.9922C917.547 35.9922 917.91 35.7031 918.152 35.125L918.633 33.9883L916.289 28H917.355L918.979 32.6172C918.998 32.6758 919.039 32.8281 919.102 33.0742H919.137C919.156 32.9805 919.195 32.832 919.254 32.6289L920.959 28H921.955Z" fill="#8E8E8E"/>
<path d="M945.07 26.4883H942.645V34H941.66V26.4883H939.24V25.5977H945.07V26.4883ZM949.916 31.2402H945.68C945.695 31.9082 945.875 32.4238 946.219 32.7871C946.562 33.1504 947.035 33.332 947.637 33.332C948.312 33.332 948.934 33.1094 949.5 32.6641V33.5664C948.973 33.9492 948.275 34.1406 947.408 34.1406C946.561 34.1406 945.895 33.8691 945.41 33.3262C944.926 32.7793 944.684 32.0117 944.684 31.0234C944.684 30.0898 944.947 29.3301 945.475 28.7441C946.006 28.1543 946.664 27.8594 947.449 27.8594C948.234 27.8594 948.842 28.1133 949.271 28.6211C949.701 29.1289 949.916 29.834 949.916 30.7363V31.2402ZM948.932 30.4258C948.928 29.8711 948.793 29.4395 948.527 29.1309C948.266 28.8223 947.9 28.668 947.432 28.668C946.979 28.668 946.594 28.8301 946.277 29.1543C945.961 29.4785 945.766 29.9023 945.691 30.4258H948.932ZM954.504 28.9727C954.336 28.8438 954.094 28.7793 953.777 28.7793C953.367 28.7793 953.023 28.9727 952.746 29.3594C952.473 29.7461 952.336 30.2734 952.336 30.9414V34H951.375V28H952.336V29.2363H952.359C952.496 28.8145 952.705 28.4863 952.986 28.252C953.268 28.0137 953.582 27.8945 953.93 27.8945C954.18 27.8945 954.371 27.9219 954.504 27.9766V28.9727ZM964.066 34H963.105V30.5547C963.105 29.8906 963.002 29.4102 962.795 29.1133C962.592 28.8164 962.248 28.668 961.764 28.668C961.354 28.668 961.004 28.8555 960.715 29.2305C960.43 29.6055 960.287 30.0547 960.287 30.5781V34H959.326V30.4375C959.326 29.2578 958.871 28.668 957.961 28.668C957.539 28.668 957.191 28.8457 956.918 29.2012C956.645 29.5527 956.508 30.0117 956.508 30.5781V34H955.547V28H956.508V28.9492H956.531C956.957 28.2227 957.578 27.8594 958.395 27.8594C958.805 27.8594 959.162 27.9746 959.467 28.2051C959.771 28.4316 959.98 28.7305 960.094 29.1016C960.539 28.2734 961.203 27.8594 962.086 27.8594C963.406 27.8594 964.066 28.6738 964.066 30.3027V34ZM965.52 33.7832V32.752C966.043 33.1387 966.619 33.332 967.248 33.332C968.092 33.332 968.514 33.0508 968.514 32.4883C968.514 32.3281 968.477 32.1934 968.402 32.084C968.332 31.9707 968.234 31.8711 968.109 31.7852C967.988 31.6992 967.844 31.623 967.676 31.5566C967.512 31.4863 967.334 31.4141 967.143 31.3398C966.877 31.2344 966.643 31.1289 966.439 31.0234C966.24 30.9141 966.072 30.793 965.936 30.6602C965.803 30.5234 965.701 30.3691 965.631 30.1973C965.564 30.0254 965.531 29.8242 965.531 29.5938C965.531 29.3125 965.596 29.0645 965.725 28.8496C965.854 28.6309 966.025 28.4492 966.24 28.3047C966.455 28.1562 966.699 28.0449 966.973 27.9707C967.25 27.8965 967.535 27.8594 967.828 27.8594C968.348 27.8594 968.812 27.9492 969.223 28.1289V29.1016C968.781 28.8125 968.273 28.668 967.699 28.668C967.52 28.668 967.357 28.6895 967.213 28.7324C967.068 28.7715 966.943 28.8281 966.838 28.9023C966.736 28.9766 966.656 29.0664 966.598 29.1719C966.543 29.2734 966.516 29.3867 966.516 29.5117C966.516 29.668 966.543 29.7988 966.598 29.9043C966.656 30.0098 966.74 30.1035 966.85 30.1855C966.959 30.2676 967.092 30.3418 967.248 30.4082C967.404 30.4746 967.582 30.5469 967.781 30.625C968.047 30.7266 968.285 30.832 968.496 30.9414C968.707 31.0469 968.887 31.168 969.035 31.3047C969.184 31.4375 969.297 31.5918 969.375 31.7676C969.457 31.9434 969.498 32.1523 969.498 32.3945C969.498 32.6914 969.432 32.9492 969.299 33.168C969.17 33.3867 968.996 33.5684 968.777 33.7129C968.559 33.8574 968.307 33.9648 968.021 34.0352C967.736 34.1055 967.438 34.1406 967.125 34.1406C966.508 34.1406 965.973 34.0215 965.52 33.7832Z" fill="#8E8E8E"/>
<path d="M993.07 26.4883H990.645V34H989.66V26.4883H987.24V25.5977H993.07V26.4883ZM995.602 34.1406C994.715 34.1406 994.006 33.8613 993.475 33.3027C992.947 32.7402 992.684 31.9961 992.684 31.0703C992.684 30.0625 992.959 29.2754 993.51 28.709C994.061 28.1426 994.805 27.8594 995.742 27.8594C996.637 27.8594 997.334 28.1348 997.834 28.6855C998.338 29.2363 998.59 30 998.59 30.9766C998.59 31.9336 998.318 32.7012 997.775 33.2793C997.236 33.8535 996.512 34.1406 995.602 34.1406ZM995.672 28.668C995.055 28.668 994.566 28.8789 994.207 29.3008C993.848 29.7188 993.668 30.2969 993.668 31.0352C993.668 31.7461 993.85 32.3066 994.213 32.7168C994.576 33.127 995.062 33.332 995.672 33.332C996.293 33.332 996.77 33.1309 997.102 32.7285C997.438 32.3262 997.605 31.7539 997.605 31.0117C997.605 30.2617 997.438 29.6836 997.102 29.2773C996.77 28.8711 996.293 28.668 995.672 28.668ZM1001.11 33.1328H1001.09V36.7598H1000.12V28H1001.09V29.0547H1001.11C1001.58 28.2578 1002.27 27.8594 1003.18 27.8594C1003.96 27.8594 1004.56 28.1289 1004.99 28.668C1005.43 29.2031 1005.64 29.9219 1005.64 30.8242C1005.64 31.8281 1005.4 32.6328 1004.91 33.2383C1004.42 33.8398 1003.76 34.1406 1002.91 34.1406C1002.13 34.1406 1001.53 33.8047 1001.11 33.1328ZM1001.09 30.7129V31.5508C1001.09 32.0469 1001.25 32.4688 1001.57 32.8164C1001.89 33.1602 1002.3 33.332 1002.8 33.332C1003.38 33.332 1003.83 33.1094 1004.16 32.6641C1004.49 32.2188 1004.66 31.5996 1004.66 30.8066C1004.66 30.1387 1004.51 29.6152 1004.2 29.2363C1003.89 28.8574 1003.47 28.668 1002.94 28.668C1002.38 28.668 1001.94 28.8633 1001.6 29.2539C1001.26 29.6406 1001.09 30.127 1001.09 30.7129ZM1017.11 34H1016.02L1015.12 31.6445H1011.56L1010.72 34H1009.63L1012.85 25.5977H1013.87L1017.11 34ZM1014.8 30.7598L1013.48 27.1797C1013.44 27.0625 1013.4 26.875 1013.36 26.6172H1013.33C1013.29 26.8555 1013.25 27.043 1013.2 27.1797L1011.89 30.7598H1014.8ZM1022.31 33.7246C1021.85 34.002 1021.3 34.1406 1020.67 34.1406C1019.81 34.1406 1019.12 33.8633 1018.59 33.3086C1018.07 32.75 1017.81 32.0273 1017.81 31.1406C1017.81 30.1523 1018.09 29.3594 1018.66 28.7617C1019.22 28.1602 1019.98 27.8594 1020.93 27.8594C1021.45 27.8594 1021.92 27.957 1022.32 28.1523V29.1367C1021.88 28.8242 1021.4 28.668 1020.89 28.668C1020.28 28.668 1019.77 28.8887 1019.38 29.3301C1018.99 29.7676 1018.79 30.3438 1018.79 31.0586C1018.79 31.7617 1018.98 32.3164 1019.34 32.7227C1019.71 33.1289 1020.21 33.332 1020.83 33.332C1021.36 33.332 1021.85 33.1582 1022.31 32.8105V33.7246ZM1027.85 33.7246C1027.39 34.002 1026.84 34.1406 1026.21 34.1406C1025.36 34.1406 1024.66 33.8633 1024.14 33.3086C1023.61 32.75 1023.35 32.0273 1023.35 31.1406C1023.35 30.1523 1023.63 29.3594 1024.2 28.7617C1024.77 28.1602 1025.52 27.8594 1026.47 27.8594C1027 27.8594 1027.46 27.957 1027.86 28.1523V29.1367C1027.42 28.8242 1026.94 28.668 1026.43 28.668C1025.82 28.668 1025.32 28.8887 1024.92 29.3301C1024.53 29.7676 1024.34 30.3438 1024.34 31.0586C1024.34 31.7617 1024.52 32.3164 1024.89 32.7227C1025.26 33.1289 1025.75 33.332 1026.38 33.332C1026.9 33.332 1027.39 33.1582 1027.85 32.8105V33.7246ZM1031.81 34.1406C1030.93 34.1406 1030.22 33.8613 1029.69 33.3027C1029.16 32.7402 1028.89 31.9961 1028.89 31.0703C1028.89 30.0625 1029.17 29.2754 1029.72 28.709C1030.27 28.1426 1031.02 27.8594 1031.95 27.8594C1032.85 27.8594 1033.54 28.1348 1034.04 28.6855C1034.55 29.2363 1034.8 30 1034.8 30.9766C1034.8 31.9336 1034.53 32.7012 1033.99 33.2793C1033.45 33.8535 1032.72 34.1406 1031.81 34.1406ZM1031.88 28.668C1031.27 28.668 1030.78 28.8789 1030.42 29.3008C1030.06 29.7188 1029.88 30.2969 1029.88 31.0352C1029.88 31.7461 1030.06 32.3066 1030.42 32.7168C1030.79 33.127 1031.27 33.332 1031.88 33.332C1032.5 33.332 1032.98 33.1309 1033.31 32.7285C1033.65 32.3262 1033.82 31.7539 1033.82 31.0117C1033.82 30.2617 1033.65 29.6836 1033.31 29.2773C1032.98 28.8711 1032.5 28.668 1031.88 28.668ZM1041.19 34H1040.23V33.0508H1040.2C1039.8 33.7773 1039.19 34.1406 1038.35 34.1406C1036.92 34.1406 1036.21 33.2891 1036.21 31.5859V28H1037.16V31.4336C1037.16 32.6992 1037.65 33.332 1038.62 33.332C1039.08 33.332 1039.47 33.1602 1039.77 32.8164C1040.07 32.4688 1040.23 32.0156 1040.23 31.457V28H1041.19V34ZM1048.11 34H1047.15V30.5781C1047.15 29.3047 1046.69 28.668 1045.76 28.668C1045.28 28.668 1044.88 28.8496 1044.56 29.2129C1044.25 29.5723 1044.09 30.0273 1044.09 30.5781V34H1043.13V28H1044.09V28.9961H1044.12C1044.57 28.2383 1045.23 27.8594 1046.09 27.8594C1046.74 27.8594 1047.24 28.0723 1047.59 28.498C1047.94 28.9199 1048.11 29.5312 1048.11 30.332V34ZM1052.71 33.9414C1052.49 34.0664 1052.19 34.1289 1051.82 34.1289C1050.77 34.1289 1050.24 33.543 1050.24 32.3711V28.8203H1049.21V28H1050.24V26.5352L1051.2 26.2246V28H1052.71V28.8203H1051.2V32.2012C1051.2 32.6035 1051.27 32.8906 1051.41 33.0625C1051.54 33.2344 1051.77 33.3203 1052.09 33.3203C1052.33 33.3203 1052.54 33.2539 1052.71 33.1211V33.9414ZM1053.63 33.7832V32.752C1054.16 33.1387 1054.73 33.332 1055.36 33.332C1056.21 33.332 1056.63 33.0508 1056.63 32.4883C1056.63 32.3281 1056.59 32.1934 1056.52 32.084C1056.45 31.9707 1056.35 31.8711 1056.22 31.7852C1056.1 31.6992 1055.96 31.623 1055.79 31.5566C1055.62 31.4863 1055.45 31.4141 1055.26 31.3398C1054.99 31.2344 1054.76 31.1289 1054.55 31.0234C1054.35 30.9141 1054.19 30.793 1054.05 30.6602C1053.92 30.5234 1053.81 30.3691 1053.74 30.1973C1053.68 30.0254 1053.64 29.8242 1053.64 29.5938C1053.64 29.3125 1053.71 29.0645 1053.84 28.8496C1053.97 28.6309 1054.14 28.4492 1054.35 28.3047C1054.57 28.1562 1054.81 28.0449 1055.09 27.9707C1055.36 27.8965 1055.65 27.8594 1055.94 27.8594C1056.46 27.8594 1056.93 27.9492 1057.34 28.1289V29.1016C1056.89 28.8125 1056.39 28.668 1055.81 28.668C1055.63 28.668 1055.47 28.6895 1055.33 28.7324C1055.18 28.7715 1055.06 28.8281 1054.95 28.9023C1054.85 28.9766 1054.77 29.0664 1054.71 29.1719C1054.66 29.2734 1054.63 29.3867 1054.63 29.5117C1054.63 29.668 1054.66 29.7988 1054.71 29.9043C1054.77 30.0098 1054.85 30.1035 1054.96 30.1855C1055.07 30.2676 1055.21 30.3418 1055.36 30.4082C1055.52 30.4746 1055.7 30.5469 1055.89 30.625C1056.16 30.7266 1056.4 30.832 1056.61 30.9414C1056.82 31.0469 1057 31.168 1057.15 31.3047C1057.3 31.4375 1057.41 31.5918 1057.49 31.7676C1057.57 31.9434 1057.61 32.1523 1057.61 32.3945C1057.61 32.6914 1057.54 32.9492 1057.41 33.168C1057.28 33.3867 1057.11 33.5684 1056.89 33.7129C1056.67 33.8574 1056.42 33.9648 1056.13 34.0352C1055.85 34.1055 1055.55 34.1406 1055.24 34.1406C1054.62 34.1406 1054.09 34.0215 1053.63 33.7832Z" fill="#8E8E8E"/>
<path d="M1082.42 34H1081.43V30.168H1077.09V34H1076.1V25.5977H1077.09V29.2832H1081.43V25.5977H1082.42V34ZM1088.79 34H1087.83V33.0625H1087.8C1087.38 33.7812 1086.77 34.1406 1085.96 34.1406C1085.36 34.1406 1084.89 33.9824 1084.55 33.666C1084.21 33.3496 1084.05 32.9297 1084.05 32.4062C1084.05 31.2852 1084.71 30.6328 1086.03 30.4492L1087.83 30.1973C1087.83 29.1777 1087.41 28.668 1086.59 28.668C1085.87 28.668 1085.21 28.9141 1084.63 29.4062V28.4219C1085.22 28.0469 1085.9 27.8594 1086.67 27.8594C1088.08 27.8594 1088.79 28.6055 1088.79 30.0977V34ZM1087.83 30.9648L1086.38 31.1641C1085.93 31.2266 1085.6 31.3379 1085.37 31.498C1085.14 31.6543 1085.03 31.9336 1085.03 32.3359C1085.03 32.6289 1085.13 32.8691 1085.34 33.0566C1085.55 33.2402 1085.83 33.332 1086.18 33.332C1086.66 33.332 1087.05 33.166 1087.36 32.834C1087.67 32.498 1087.83 32.0742 1087.83 31.5625V30.9648ZM1090.23 33.7832V32.752C1090.76 33.1387 1091.33 33.332 1091.96 33.332C1092.81 33.332 1093.23 33.0508 1093.23 32.4883C1093.23 32.3281 1093.19 32.1934 1093.12 32.084C1093.05 31.9707 1092.95 31.8711 1092.82 31.7852C1092.7 31.6992 1092.56 31.623 1092.39 31.5566C1092.23 31.4863 1092.05 31.4141 1091.86 31.3398C1091.59 31.2344 1091.36 31.1289 1091.15 31.0234C1090.96 30.9141 1090.79 30.793 1090.65 30.6602C1090.52 30.5234 1090.42 30.3691 1090.35 30.1973C1090.28 30.0254 1090.25 29.8242 1090.25 29.5938C1090.25 29.3125 1090.31 29.0645 1090.44 28.8496C1090.57 28.6309 1090.74 28.4492 1090.96 28.3047C1091.17 28.1562 1091.41 28.0449 1091.69 27.9707C1091.96 27.8965 1092.25 27.8594 1092.54 27.8594C1093.06 27.8594 1093.53 27.9492 1093.94 28.1289V29.1016C1093.5 28.8125 1092.99 28.668 1092.41 28.668C1092.23 28.668 1092.07 28.6895 1091.93 28.7324C1091.78 28.7715 1091.66 28.8281 1091.55 28.9023C1091.45 28.9766 1091.37 29.0664 1091.31 29.1719C1091.26 29.2734 1091.23 29.3867 1091.23 29.5117C1091.23 29.668 1091.26 29.7988 1091.31 29.9043C1091.37 30.0098 1091.46 30.1035 1091.56 30.1855C1091.67 30.2676 1091.81 30.3418 1091.96 30.4082C1092.12 30.4746 1092.3 30.5469 1092.5 30.625C1092.76 30.7266 1093 30.832 1093.21 30.9414C1093.42 31.0469 1093.6 31.168 1093.75 31.3047C1093.9 31.4375 1094.01 31.5918 1094.09 31.7676C1094.17 31.9434 1094.21 32.1523 1094.21 32.3945C1094.21 32.6914 1094.15 32.9492 1094.01 33.168C1093.88 33.3867 1093.71 33.5684 1093.49 33.7129C1093.27 33.8574 1093.02 33.9648 1092.74 34.0352C1092.45 34.1055 1092.15 34.1406 1091.84 34.1406C1091.22 34.1406 1090.69 34.0215 1090.23 33.7832ZM1100.68 34H1099.71V30.543C1099.71 29.293 1099.25 28.668 1098.32 28.668C1097.85 28.668 1097.46 28.8496 1097.14 29.2129C1096.82 29.5723 1096.66 30.0352 1096.66 30.6016V34H1095.7V25.1172H1096.66V28.9961H1096.68C1097.14 28.2383 1097.8 27.8594 1098.65 27.8594C1100 27.8594 1100.68 28.6738 1100.68 30.3027V34ZM1105.28 33.9414C1105.05 34.0664 1104.75 34.1289 1104.38 34.1289C1103.33 34.1289 1102.8 33.543 1102.8 32.3711V28.8203H1101.77V28H1102.8V26.5352L1103.76 26.2246V28H1105.28V28.8203H1103.76V32.2012C1103.76 32.6035 1103.83 32.8906 1103.97 33.0625C1104.11 33.2344 1104.33 33.3203 1104.65 33.3203C1104.89 33.3203 1105.1 33.2539 1105.28 33.1211V33.9414ZM1110.85 34H1109.89V33.0625H1109.87C1109.45 33.7812 1108.84 34.1406 1108.02 34.1406C1107.43 34.1406 1106.96 33.9824 1106.62 33.666C1106.28 33.3496 1106.11 32.9297 1106.11 32.4062C1106.11 31.2852 1106.77 30.6328 1108.09 30.4492L1109.89 30.1973C1109.89 29.1777 1109.48 28.668 1108.66 28.668C1107.93 28.668 1107.28 28.9141 1106.7 29.4062V28.4219C1107.29 28.0469 1107.97 27.8594 1108.74 27.8594C1110.15 27.8594 1110.85 28.6055 1110.85 30.0977V34ZM1109.89 30.9648L1108.45 31.1641C1108 31.2266 1107.66 31.3379 1107.44 31.498C1107.21 31.6543 1107.1 31.9336 1107.1 32.3359C1107.1 32.6289 1107.2 32.8691 1107.41 33.0566C1107.62 33.2402 1107.9 33.332 1108.25 33.332C1108.72 33.332 1109.12 33.166 1109.42 32.834C1109.74 32.498 1109.89 32.0742 1109.89 31.5625V30.9648ZM1117.79 33.5195C1117.79 35.7227 1116.73 36.8242 1114.62 36.8242C1113.88 36.8242 1113.23 36.6836 1112.68 36.4023V35.4414C1113.35 35.8164 1114 36.0039 1114.61 36.0039C1116.09 36.0039 1116.82 35.2188 1116.82 33.6484V32.9922H1116.8C1116.34 33.7578 1115.66 34.1406 1114.74 34.1406C1113.99 34.1406 1113.39 33.875 1112.93 33.3438C1112.48 32.8086 1112.25 32.0918 1112.25 31.1934C1112.25 30.1738 1112.5 29.3633 1112.99 28.7617C1113.48 28.1602 1114.15 27.8594 1115 27.8594C1115.81 27.8594 1116.41 28.1836 1116.8 28.832H1116.82V28H1117.79V33.5195ZM1116.82 31.2871V30.4023C1116.82 29.9258 1116.66 29.5176 1116.34 29.1777C1116.02 28.8379 1115.62 28.668 1115.14 28.668C1114.54 28.668 1114.08 28.8848 1113.74 29.3184C1113.41 29.748 1113.24 30.3516 1113.24 31.1289C1113.24 31.7969 1113.4 32.332 1113.72 32.7344C1114.04 33.1328 1114.47 33.332 1115 33.332C1115.54 33.332 1115.98 33.1406 1116.31 32.7578C1116.65 32.375 1116.82 31.8848 1116.82 31.2871ZM1119.37 33.7832V32.752C1119.89 33.1387 1120.47 33.332 1121.1 33.332C1121.94 33.332 1122.36 33.0508 1122.36 32.4883C1122.36 32.3281 1122.32 32.1934 1122.25 32.084C1122.18 31.9707 1122.08 31.8711 1121.96 31.7852C1121.84 31.6992 1121.69 31.623 1121.52 31.5566C1121.36 31.4863 1121.18 31.4141 1120.99 31.3398C1120.72 31.2344 1120.49 31.1289 1120.29 31.0234C1120.09 30.9141 1119.92 30.793 1119.78 30.6602C1119.65 30.5234 1119.55 30.3691 1119.48 30.1973C1119.41 30.0254 1119.38 29.8242 1119.38 29.5938C1119.38 29.3125 1119.44 29.0645 1119.57 28.8496C1119.7 28.6309 1119.87 28.4492 1120.09 28.3047C1120.3 28.1562 1120.55 28.0449 1120.82 27.9707C1121.1 27.8965 1121.38 27.8594 1121.68 27.8594C1122.2 27.8594 1122.66 27.9492 1123.07 28.1289V29.1016C1122.63 28.8125 1122.12 28.668 1121.55 28.668C1121.37 28.668 1121.21 28.6895 1121.06 28.7324C1120.92 28.7715 1120.79 28.8281 1120.69 28.9023C1120.58 28.9766 1120.5 29.0664 1120.45 29.1719C1120.39 29.2734 1120.36 29.3867 1120.36 29.5117C1120.36 29.668 1120.39 29.7988 1120.45 29.9043C1120.5 30.0098 1120.59 30.1035 1120.7 30.1855C1120.81 30.2676 1120.94 30.3418 1121.1 30.4082C1121.25 30.4746 1121.43 30.5469 1121.63 30.625C1121.89 30.7266 1122.13 30.832 1122.34 30.9414C1122.55 31.0469 1122.73 31.168 1122.88 31.3047C1123.03 31.4375 1123.14 31.5918 1123.22 31.7676C1123.3 31.9434 1123.35 32.1523 1123.35 32.3945C1123.35 32.6914 1123.28 32.9492 1123.15 33.168C1123.02 33.3867 1122.84 33.5684 1122.62 33.7129C1122.41 33.8574 1122.15 33.9648 1121.87 34.0352C1121.58 34.1055 1121.29 34.1406 1120.97 34.1406C1120.36 34.1406 1119.82 34.0215 1119.37 33.7832Z" fill="#8E8E8E"/>
<path d="M1145.46 34H1141.1V25.5977H1142.09V33.1094H1145.46V34ZM1149.13 34.1406C1148.24 34.1406 1147.53 33.8613 1147 33.3027C1146.47 32.7402 1146.21 31.9961 1146.21 31.0703C1146.21 30.0625 1146.49 29.2754 1147.04 28.709C1147.59 28.1426 1148.33 27.8594 1149.27 27.8594C1150.16 27.8594 1150.86 28.1348 1151.36 28.6855C1151.87 29.2363 1152.12 30 1152.12 30.9766C1152.12 31.9336 1151.85 32.7012 1151.3 33.2793C1150.76 33.8535 1150.04 34.1406 1149.13 34.1406ZM1149.2 28.668C1148.58 28.668 1148.09 28.8789 1147.73 29.3008C1147.38 29.7188 1147.2 30.2969 1147.2 31.0352C1147.2 31.7461 1147.38 32.3066 1147.74 32.7168C1148.1 33.127 1148.59 33.332 1149.2 33.332C1149.82 33.332 1150.3 33.1309 1150.63 32.7285C1150.96 32.3262 1151.13 31.7539 1151.13 31.0117C1151.13 30.2617 1150.96 29.6836 1150.63 29.2773C1150.3 28.8711 1149.82 28.668 1149.2 28.668ZM1157.74 33.7246C1157.28 34.002 1156.73 34.1406 1156.1 34.1406C1155.25 34.1406 1154.55 33.8633 1154.03 33.3086C1153.5 32.75 1153.24 32.0273 1153.24 31.1406C1153.24 30.1523 1153.53 29.3594 1154.09 28.7617C1154.66 28.1602 1155.41 27.8594 1156.36 27.8594C1156.89 27.8594 1157.35 27.957 1157.75 28.1523V29.1367C1157.31 28.8242 1156.83 28.668 1156.32 28.668C1155.71 28.668 1155.21 28.8887 1154.81 29.3301C1154.42 29.7676 1154.23 30.3438 1154.23 31.0586C1154.23 31.7617 1154.41 32.3164 1154.78 32.7227C1155.15 33.1289 1155.64 33.332 1156.27 33.332C1156.79 33.332 1157.28 33.1582 1157.74 32.8105V33.7246ZM1163.49 34H1162.53V33.0625H1162.51C1162.09 33.7812 1161.47 34.1406 1160.66 34.1406C1160.06 34.1406 1159.59 33.9824 1159.25 33.666C1158.92 33.3496 1158.75 32.9297 1158.75 32.4062C1158.75 31.2852 1159.41 30.6328 1160.73 30.4492L1162.53 30.1973C1162.53 29.1777 1162.12 28.668 1161.29 28.668C1160.57 28.668 1159.92 28.9141 1159.34 29.4062V28.4219C1159.93 28.0469 1160.61 27.8594 1161.38 27.8594C1162.79 27.8594 1163.49 28.6055 1163.49 30.0977V34ZM1162.53 30.9648L1161.08 31.1641C1160.64 31.2266 1160.3 31.3379 1160.07 31.498C1159.85 31.6543 1159.73 31.9336 1159.73 32.3359C1159.73 32.6289 1159.84 32.8691 1160.04 33.0566C1160.26 33.2402 1160.54 33.332 1160.88 33.332C1161.36 33.332 1161.75 33.166 1162.06 32.834C1162.37 32.498 1162.53 32.0742 1162.53 31.5625V30.9648ZM1168.08 33.9414C1167.86 34.0664 1167.56 34.1289 1167.19 34.1289C1166.14 34.1289 1165.61 33.543 1165.61 32.3711V28.8203H1164.58V28H1165.61V26.5352L1166.57 26.2246V28H1168.08V28.8203H1166.57V32.2012C1166.57 32.6035 1166.64 32.8906 1166.78 33.0625C1166.91 33.2344 1167.14 33.3203 1167.46 33.3203C1167.7 33.3203 1167.91 33.2539 1168.08 33.1211V33.9414ZM1169.86 26.4766C1169.69 26.4766 1169.54 26.418 1169.42 26.3008C1169.3 26.1836 1169.24 26.0352 1169.24 25.8555C1169.24 25.6758 1169.3 25.5273 1169.42 25.4102C1169.54 25.2891 1169.69 25.2285 1169.86 25.2285C1170.04 25.2285 1170.18 25.2891 1170.3 25.4102C1170.43 25.5273 1170.49 25.6758 1170.49 25.8555C1170.49 26.0273 1170.43 26.1738 1170.3 26.2949C1170.18 26.416 1170.04 26.4766 1169.86 26.4766ZM1170.33 34H1169.37V28H1170.33V34ZM1174.78 34.1406C1173.89 34.1406 1173.19 33.8613 1172.65 33.3027C1172.13 32.7402 1171.86 31.9961 1171.86 31.0703C1171.86 30.0625 1172.14 29.2754 1172.69 28.709C1173.24 28.1426 1173.98 27.8594 1174.92 27.8594C1175.82 27.8594 1176.51 28.1348 1177.01 28.6855C1177.52 29.2363 1177.77 30 1177.77 30.9766C1177.77 31.9336 1177.5 32.7012 1176.96 33.2793C1176.42 33.8535 1175.69 34.1406 1174.78 34.1406ZM1174.85 28.668C1174.23 28.668 1173.75 28.8789 1173.39 29.3008C1173.03 29.7188 1172.85 30.2969 1172.85 31.0352C1172.85 31.7461 1173.03 32.3066 1173.39 32.7168C1173.76 33.127 1174.24 33.332 1174.85 33.332C1175.47 33.332 1175.95 33.1309 1176.28 32.7285C1176.62 32.3262 1176.79 31.7539 1176.79 31.0117C1176.79 30.2617 1176.62 29.6836 1176.28 29.2773C1175.95 28.8711 1175.47 28.668 1174.85 28.668ZM1184.29 34H1183.32V30.5781C1183.32 29.3047 1182.86 28.668 1181.93 28.668C1181.45 28.668 1181.05 28.8496 1180.73 29.2129C1180.42 29.5723 1180.27 30.0273 1180.27 30.5781V34H1179.3V28H1180.27V28.9961H1180.29C1180.74 28.2383 1181.4 27.8594 1182.26 27.8594C1182.91 27.8594 1183.42 28.0723 1183.76 28.498C1184.11 28.9199 1184.29 29.5312 1184.29 30.332V34ZM1185.74 33.7832V32.752C1186.26 33.1387 1186.84 33.332 1187.47 33.332C1188.31 33.332 1188.73 33.0508 1188.73 32.4883C1188.73 32.3281 1188.7 32.1934 1188.62 32.084C1188.55 31.9707 1188.45 31.8711 1188.33 31.7852C1188.21 31.6992 1188.06 31.623 1187.89 31.5566C1187.73 31.4863 1187.55 31.4141 1187.36 31.3398C1187.1 31.2344 1186.86 31.1289 1186.66 31.0234C1186.46 30.9141 1186.29 30.793 1186.15 30.6602C1186.02 30.5234 1185.92 30.3691 1185.85 30.1973C1185.78 30.0254 1185.75 29.8242 1185.75 29.5938C1185.75 29.3125 1185.81 29.0645 1185.94 28.8496C1186.07 28.6309 1186.24 28.4492 1186.46 28.3047C1186.67 28.1562 1186.92 28.0449 1187.19 27.9707C1187.47 27.8965 1187.75 27.8594 1188.05 27.8594C1188.57 27.8594 1189.03 27.9492 1189.44 28.1289V29.1016C1189 28.8125 1188.49 28.668 1187.92 28.668C1187.74 28.668 1187.58 28.6895 1187.43 28.7324C1187.29 28.7715 1187.16 28.8281 1187.06 28.9023C1186.96 28.9766 1186.88 29.0664 1186.82 29.1719C1186.76 29.2734 1186.73 29.3867 1186.73 29.5117C1186.73 29.668 1186.76 29.7988 1186.82 29.9043C1186.88 30.0098 1186.96 30.1035 1187.07 30.1855C1187.18 30.2676 1187.31 30.3418 1187.47 30.4082C1187.62 30.4746 1187.8 30.5469 1188 30.625C1188.27 30.7266 1188.5 30.832 1188.71 30.9414C1188.93 31.0469 1189.11 31.168 1189.25 31.3047C1189.4 31.4375 1189.52 31.5918 1189.59 31.7676C1189.68 31.9434 1189.72 32.1523 1189.72 32.3945C1189.72 32.6914 1189.65 32.9492 1189.52 33.168C1189.39 33.3867 1189.21 33.5684 1189 33.7129C1188.78 33.8574 1188.53 33.9648 1188.24 34.0352C1187.96 34.1055 1187.66 34.1406 1187.34 34.1406C1186.73 34.1406 1186.19 34.0215 1185.74 33.7832Z" fill="#8E8E8E"/>
<path d="M1209.09 34H1208.1V25.5977H1209.09V34ZM1216.15 34H1215.19V30.5781C1215.19 29.3047 1214.73 28.668 1213.8 28.668C1213.32 28.668 1212.92 28.8496 1212.6 29.2129C1212.29 29.5723 1212.13 30.0273 1212.13 30.5781V34H1211.17V28H1212.13V28.9961H1212.16C1212.61 28.2383 1213.27 27.8594 1214.12 27.8594C1214.78 27.8594 1215.28 28.0723 1215.63 28.498C1215.98 28.9199 1216.15 29.5312 1216.15 30.332V34ZM1217.61 33.7832V32.752C1218.13 33.1387 1218.71 33.332 1219.33 33.332C1220.18 33.332 1220.6 33.0508 1220.6 32.4883C1220.6 32.3281 1220.56 32.1934 1220.49 32.084C1220.42 31.9707 1220.32 31.8711 1220.2 31.7852C1220.07 31.6992 1219.93 31.623 1219.76 31.5566C1219.6 31.4863 1219.42 31.4141 1219.23 31.3398C1218.96 31.2344 1218.73 31.1289 1218.53 31.0234C1218.33 30.9141 1218.16 30.793 1218.02 30.6602C1217.89 30.5234 1217.79 30.3691 1217.72 30.1973C1217.65 30.0254 1217.62 29.8242 1217.62 29.5938C1217.62 29.3125 1217.68 29.0645 1217.81 28.8496C1217.94 28.6309 1218.11 28.4492 1218.33 28.3047C1218.54 28.1562 1218.79 28.0449 1219.06 27.9707C1219.34 27.8965 1219.62 27.8594 1219.91 27.8594C1220.43 27.8594 1220.9 27.9492 1221.31 28.1289V29.1016C1220.87 28.8125 1220.36 28.668 1219.79 28.668C1219.61 28.668 1219.44 28.6895 1219.3 28.7324C1219.15 28.7715 1219.03 28.8281 1218.92 28.9023C1218.82 28.9766 1218.74 29.0664 1218.68 29.1719C1218.63 29.2734 1218.6 29.3867 1218.6 29.5117C1218.6 29.668 1218.63 29.7988 1218.68 29.9043C1218.74 30.0098 1218.83 30.1035 1218.94 30.1855C1219.04 30.2676 1219.18 30.3418 1219.33 30.4082C1219.49 30.4746 1219.67 30.5469 1219.87 30.625C1220.13 30.7266 1220.37 30.832 1220.58 30.9414C1220.79 31.0469 1220.97 31.168 1221.12 31.3047C1221.27 31.4375 1221.38 31.5918 1221.46 31.7676C1221.54 31.9434 1221.58 32.1523 1221.58 32.3945C1221.58 32.6914 1221.52 32.9492 1221.38 33.168C1221.26 33.3867 1221.08 33.5684 1220.86 33.7129C1220.64 33.8574 1220.39 33.9648 1220.11 34.0352C1219.82 34.1055 1219.52 34.1406 1219.21 34.1406C1218.59 34.1406 1218.06 34.0215 1217.61 33.7832ZM1225.85 33.9414C1225.62 34.0664 1225.32 34.1289 1224.95 34.1289C1223.9 34.1289 1223.38 33.543 1223.38 32.3711V28.8203H1222.35V28H1223.38V26.5352L1224.34 26.2246V28H1225.85V28.8203H1224.34V32.2012C1224.34 32.6035 1224.41 32.8906 1224.54 33.0625C1224.68 33.2344 1224.91 33.3203 1225.22 33.3203C1225.46 33.3203 1225.67 33.2539 1225.85 33.1211V33.9414ZM1231.43 34H1230.47V33.0625H1230.44C1230.03 33.7812 1229.41 34.1406 1228.6 34.1406C1228 34.1406 1227.53 33.9824 1227.19 33.666C1226.86 33.3496 1226.69 32.9297 1226.69 32.4062C1226.69 31.2852 1227.35 30.6328 1228.67 30.4492L1230.47 30.1973C1230.47 29.1777 1230.05 28.668 1229.23 28.668C1228.51 28.668 1227.86 28.9141 1227.27 29.4062V28.4219C1227.86 28.0469 1228.54 27.8594 1229.31 27.8594C1230.72 27.8594 1231.43 28.6055 1231.43 30.0977V34ZM1230.47 30.9648L1229.02 31.1641C1228.57 31.2266 1228.24 31.3379 1228.01 31.498C1227.79 31.6543 1227.67 31.9336 1227.67 32.3359C1227.67 32.6289 1227.78 32.8691 1227.98 33.0566C1228.19 33.2402 1228.47 33.332 1228.82 33.332C1229.3 33.332 1229.69 33.166 1230 32.834C1230.31 32.498 1230.47 32.0742 1230.47 31.5625V30.9648ZM1238.36 33.5195C1238.36 35.7227 1237.3 36.8242 1235.2 36.8242C1234.45 36.8242 1233.8 36.6836 1233.25 36.4023V35.4414C1233.93 35.8164 1234.57 36.0039 1235.18 36.0039C1236.66 36.0039 1237.4 35.2188 1237.4 33.6484V32.9922H1237.38C1236.92 33.7578 1236.23 34.1406 1235.31 34.1406C1234.57 34.1406 1233.96 33.875 1233.51 33.3438C1233.05 32.8086 1232.83 32.0918 1232.83 31.1934C1232.83 30.1738 1233.07 29.3633 1233.56 28.7617C1234.05 28.1602 1234.72 27.8594 1235.58 27.8594C1236.38 27.8594 1236.98 28.1836 1237.38 28.832H1237.4V28H1238.36V33.5195ZM1237.4 31.2871V30.4023C1237.4 29.9258 1237.24 29.5176 1236.91 29.1777C1236.59 28.8379 1236.19 28.668 1235.71 28.668C1235.12 28.668 1234.65 28.8848 1234.32 29.3184C1233.98 29.748 1233.81 30.3516 1233.81 31.1289C1233.81 31.7969 1233.97 32.332 1234.29 32.7344C1234.62 33.1328 1235.04 33.332 1235.58 33.332C1236.12 33.332 1236.55 33.1406 1236.89 32.7578C1237.23 32.375 1237.4 31.8848 1237.4 31.2871ZM1243.43 28.9727C1243.27 28.8438 1243.02 28.7793 1242.71 28.7793C1242.3 28.7793 1241.95 28.9727 1241.68 29.3594C1241.4 29.7461 1241.27 30.2734 1241.27 30.9414V34H1240.3V28H1241.27V29.2363H1241.29C1241.43 28.8145 1241.63 28.4863 1241.92 28.252C1242.2 28.0137 1242.51 27.8945 1242.86 27.8945C1243.11 27.8945 1243.3 27.9219 1243.43 27.9766V28.9727ZM1248.77 34H1247.81V33.0625H1247.79C1247.37 33.7812 1246.75 34.1406 1245.94 34.1406C1245.34 34.1406 1244.88 33.9824 1244.54 33.666C1244.2 33.3496 1244.03 32.9297 1244.03 32.4062C1244.03 31.2852 1244.69 30.6328 1246.01 30.4492L1247.81 30.1973C1247.81 29.1777 1247.4 28.668 1246.57 28.668C1245.85 28.668 1245.2 28.9141 1244.62 29.4062V28.4219C1245.21 28.0469 1245.89 27.8594 1246.66 27.8594C1248.07 27.8594 1248.77 28.6055 1248.77 30.0977V34ZM1247.81 30.9648L1246.36 31.1641C1245.92 31.2266 1245.58 31.3379 1245.36 31.498C1245.13 31.6543 1245.02 31.9336 1245.02 32.3359C1245.02 32.6289 1245.12 32.8691 1245.33 33.0566C1245.54 33.2402 1245.82 33.332 1246.16 33.332C1246.64 33.332 1247.03 33.166 1247.34 32.834C1247.65 32.498 1247.81 32.0742 1247.81 31.5625V30.9648ZM1259.1 34H1258.14V30.5547C1258.14 29.8906 1258.04 29.4102 1257.83 29.1133C1257.63 28.8164 1257.28 28.668 1256.8 28.668C1256.39 28.668 1256.04 28.8555 1255.75 29.2305C1255.46 29.6055 1255.32 30.0547 1255.32 30.5781V34H1254.36V30.4375C1254.36 29.2578 1253.91 28.668 1253 28.668C1252.57 28.668 1252.23 28.8457 1251.95 29.2012C1251.68 29.5527 1251.54 30.0117 1251.54 30.5781V34H1250.58V28H1251.54V28.9492H1251.57C1251.99 28.2227 1252.61 27.8594 1253.43 27.8594C1253.84 27.8594 1254.2 27.9746 1254.5 28.2051C1254.81 28.4316 1255.02 28.7305 1255.13 29.1016C1255.57 28.2734 1256.24 27.8594 1257.12 27.8594C1258.44 27.8594 1259.1 28.6738 1259.1 30.3027V34ZM1268.7 34H1264.34V25.5977H1265.32V33.1094H1268.7V34ZM1270.35 26.4766C1270.18 26.4766 1270.03 26.418 1269.91 26.3008C1269.79 26.1836 1269.73 26.0352 1269.73 25.8555C1269.73 25.6758 1269.79 25.5273 1269.91 25.4102C1270.03 25.2891 1270.18 25.2285 1270.35 25.2285C1270.53 25.2285 1270.68 25.2891 1270.8 25.4102C1270.92 25.5273 1270.98 25.6758 1270.98 25.8555C1270.98 26.0273 1270.92 26.1738 1270.8 26.2949C1270.68 26.416 1270.53 26.4766 1270.35 26.4766ZM1270.82 34H1269.86V28H1270.82V34ZM1275.55 33.9414C1275.32 34.0664 1275.02 34.1289 1274.65 34.1289C1273.6 34.1289 1273.08 33.543 1273.08 32.3711V28.8203H1272.04V28H1273.08V26.5352L1274.04 26.2246V28H1275.55V28.8203H1274.04V32.2012C1274.04 32.6035 1274.11 32.8906 1274.24 33.0625C1274.38 33.2344 1274.61 33.3203 1274.92 33.3203C1275.16 33.3203 1275.37 33.2539 1275.55 33.1211V33.9414ZM1281.65 31.2402H1277.42C1277.43 31.9082 1277.61 32.4238 1277.96 32.7871C1278.3 33.1504 1278.77 33.332 1279.38 33.332C1280.05 33.332 1280.67 33.1094 1281.24 32.6641V33.5664C1280.71 33.9492 1280.01 34.1406 1279.15 34.1406C1278.3 34.1406 1277.63 33.8691 1277.15 33.3262C1276.66 32.7793 1276.42 32.0117 1276.42 31.0234C1276.42 30.0898 1276.69 29.3301 1277.21 28.7441C1277.74 28.1543 1278.4 27.8594 1279.19 27.8594C1279.97 27.8594 1280.58 28.1133 1281.01 28.6211C1281.44 29.1289 1281.65 29.834 1281.65 30.7363V31.2402ZM1280.67 30.4258C1280.67 29.8711 1280.53 29.4395 1280.27 29.1309C1280 28.8223 1279.64 28.668 1279.17 28.668C1278.72 28.668 1278.33 28.8301 1278.02 29.1543C1277.7 29.4785 1277.5 29.9023 1277.43 30.4258H1280.67Z" fill="#8E8E8E"/>
<path d="M642.555 63H638.102V54.5977H642.367V55.4883H639.086V58.2832H642.121V59.168H639.086V62.1094H642.555V63ZM649.023 63H648.062V59.5781C648.062 58.3047 647.598 57.668 646.668 57.668C646.188 57.668 645.789 57.8496 645.473 58.2129C645.16 58.5723 645.004 59.0273 645.004 59.5781V63H644.043V57H645.004V57.9961H645.027C645.48 57.2383 646.137 56.8594 646.996 56.8594C647.652 56.8594 648.154 57.0723 648.502 57.498C648.85 57.9199 649.023 58.5312 649.023 59.332V63ZM655.961 62.5195C655.961 64.7227 654.906 65.8242 652.797 65.8242C652.055 65.8242 651.406 65.6836 650.852 65.4023V64.4414C651.527 64.8164 652.172 65.0039 652.785 65.0039C654.262 65.0039 655 64.2188 655 62.6484V61.9922H654.977C654.52 62.7578 653.832 63.1406 652.914 63.1406C652.168 63.1406 651.566 62.875 651.109 62.3438C650.656 61.8086 650.43 61.0918 650.43 60.1934C650.43 59.1738 650.674 58.3633 651.162 57.7617C651.654 57.1602 652.326 56.8594 653.178 56.8594C653.986 56.8594 654.586 57.1836 654.977 57.832H655V57H655.961V62.5195ZM655 60.2871V59.4023C655 58.9258 654.838 58.5176 654.514 58.1777C654.193 57.8379 653.793 57.668 653.312 57.668C652.719 57.668 652.254 57.8848 651.918 58.3184C651.582 58.748 651.414 59.3516 651.414 60.1289C651.414 60.7969 651.574 61.332 651.895 61.7344C652.219 62.1328 652.646 62.332 653.178 62.332C653.717 62.332 654.154 62.1406 654.49 61.7578C654.83 61.375 655 60.8848 655 60.2871ZM658.867 63H657.906V54.1172H658.867V63ZM661.305 55.4766C661.133 55.4766 660.986 55.418 660.865 55.3008C660.744 55.1836 660.684 55.0352 660.684 54.8555C660.684 54.6758 660.744 54.5273 660.865 54.4102C660.986 54.2891 661.133 54.2285 661.305 54.2285C661.48 54.2285 661.629 54.2891 661.75 54.4102C661.875 54.5273 661.938 54.6758 661.938 54.8555C661.938 55.0273 661.875 55.1738 661.75 55.2949C661.629 55.416 661.48 55.4766 661.305 55.4766ZM661.773 63H660.812V57H661.773V63ZM663.355 62.7832V61.752C663.879 62.1387 664.455 62.332 665.084 62.332C665.928 62.332 666.35 62.0508 666.35 61.4883C666.35 61.3281 666.312 61.1934 666.238 61.084C666.168 60.9707 666.07 60.8711 665.945 60.7852C665.824 60.6992 665.68 60.623 665.512 60.5566C665.348 60.4863 665.17 60.4141 664.979 60.3398C664.713 60.2344 664.479 60.1289 664.275 60.0234C664.076 59.9141 663.908 59.793 663.771 59.6602C663.639 59.5234 663.537 59.3691 663.467 59.1973C663.4 59.0254 663.367 58.8242 663.367 58.5938C663.367 58.3125 663.432 58.0645 663.561 57.8496C663.689 57.6309 663.861 57.4492 664.076 57.3047C664.291 57.1562 664.535 57.0449 664.809 56.9707C665.086 56.8965 665.371 56.8594 665.664 56.8594C666.184 56.8594 666.648 56.9492 667.059 57.1289V58.1016C666.617 57.8125 666.109 57.668 665.535 57.668C665.355 57.668 665.193 57.6895 665.049 57.7324C664.904 57.7715 664.779 57.8281 664.674 57.9023C664.572 57.9766 664.492 58.0664 664.434 58.1719C664.379 58.2734 664.352 58.3867 664.352 58.5117C664.352 58.668 664.379 58.7988 664.434 58.9043C664.492 59.0098 664.576 59.1035 664.686 59.1855C664.795 59.2676 664.928 59.3418 665.084 59.4082C665.24 59.4746 665.418 59.5469 665.617 59.625C665.883 59.7266 666.121 59.832 666.332 59.9414C666.543 60.0469 666.723 60.168 666.871 60.3047C667.02 60.4375 667.133 60.5918 667.211 60.7676C667.293 60.9434 667.334 61.1523 667.334 61.3945C667.334 61.6914 667.268 61.9492 667.135 62.168C667.006 62.3867 666.832 62.5684 666.613 62.7129C666.395 62.8574 666.143 62.9648 665.857 63.0352C665.572 63.1055 665.273 63.1406 664.961 63.1406C664.344 63.1406 663.809 63.0215 663.355 62.7832ZM673.797 63H672.836V59.543C672.836 58.293 672.371 57.668 671.441 57.668C670.973 57.668 670.578 57.8496 670.258 58.2129C669.938 58.5723 669.777 59.0352 669.777 59.6016V63H668.816V54.1172H669.777V57.9961H669.801C670.262 57.2383 670.918 56.8594 671.77 56.8594C673.121 56.8594 673.797 57.6738 673.797 59.3027V63Z" fill="#8E8E8E"/>
<path d="M680.833 56.3228C680.925 56.3228 681.017 56.3457 681.085 56.4145L684.5 59.852L687.915 56.4145C688.052 56.277 688.258 56.277 688.396 56.4145C688.533 56.552 688.533 56.7582 688.396 56.8957L684.729 60.5624C684.592 60.6999 684.385 60.6999 684.248 60.5624L680.581 56.8957C680.444 56.7582 680.444 56.552 680.581 56.4145C680.65 56.3457 680.742 56.3228 680.833 56.3228Z" fill="#8E8E8E"/>
<path d="M719.344 63.1934C718.129 63.1934 717.092 62.7656 716.232 61.9102C715.377 61.0508 714.949 60.0137 714.949 58.7988C714.949 57.584 715.377 56.5488 716.232 55.6934C717.092 54.834 718.129 54.4043 719.344 54.4043C720.555 54.4043 721.588 54.834 722.443 55.6934C723.303 56.5488 723.732 57.584 723.732 58.7988C723.732 60.0137 723.303 61.0508 722.443 61.9102C721.588 62.7656 720.555 63.1934 719.344 63.1934ZM719.344 54.9199C718.273 54.9199 717.359 55.2988 716.602 56.0566C715.844 56.8145 715.465 57.7285 715.465 58.7988C715.465 59.8691 715.844 60.7832 716.602 61.541C717.359 62.2949 718.273 62.6719 719.344 62.6719C720.414 62.6719 721.326 62.2949 722.08 61.541C722.838 60.7832 723.217 59.8691 723.217 58.7988C723.217 57.7285 722.838 56.8145 722.08 56.0566C721.326 55.2988 720.414 54.9199 719.344 54.9199ZM720.932 61.0723C720.521 61.3418 720.037 61.4766 719.479 61.4766C718.729 61.4766 718.1 61.2324 717.592 60.7441C717.084 60.2559 716.83 59.6445 716.83 58.9102C716.83 58.0586 717.09 57.3789 717.609 56.8711C718.129 56.3633 718.805 56.1094 719.637 56.1094C720.109 56.1094 720.533 56.2129 720.908 56.4199V57.2988C720.572 57.0176 720.125 56.877 719.566 56.877C719.016 56.877 718.561 57.0527 718.201 57.4043C717.846 57.7559 717.668 58.2285 717.668 58.8223C717.668 59.4004 717.85 59.8633 718.213 60.2109C718.58 60.5586 719.045 60.7324 719.607 60.7324C720.123 60.7324 720.564 60.5801 720.932 60.2754V61.0723ZM732.504 56.8008C732.504 56.543 732.463 56.3184 732.381 56.127C732.303 55.9355 732.193 55.7773 732.053 55.6523C731.916 55.5234 731.754 55.4277 731.566 55.3652C731.379 55.3027 731.176 55.2715 730.957 55.2715C730.77 55.2715 730.586 55.2969 730.406 55.3477C730.227 55.3984 730.051 55.4688 729.879 55.5586C729.711 55.6484 729.547 55.7559 729.387 55.8809C729.23 56.0059 729.084 56.1445 728.947 56.2969V55.2656C729.217 55.0039 729.518 54.8047 729.85 54.668C730.186 54.5273 730.594 54.457 731.074 54.457C731.418 54.457 731.736 54.5078 732.029 54.6094C732.322 54.707 732.576 54.8516 732.791 55.043C733.006 55.2344 733.174 55.4707 733.295 55.752C733.42 56.0332 733.482 56.3555 733.482 56.7188C733.482 57.0508 733.443 57.3516 733.365 57.6211C733.291 57.8906 733.176 58.1445 733.02 58.3828C732.867 58.6211 732.674 58.8496 732.439 59.0684C732.205 59.2871 731.93 59.5098 731.613 59.7363C731.219 60.0176 730.893 60.2578 730.635 60.457C730.381 60.6562 730.178 60.8438 730.025 61.0195C729.877 61.1914 729.771 61.3652 729.709 61.541C729.65 61.7129 729.621 61.9121 729.621 62.1387H733.805V63H728.619V62.584C728.619 62.2246 728.658 61.9082 728.736 61.6348C728.814 61.3613 728.943 61.1016 729.123 60.8555C729.303 60.6094 729.537 60.3633 729.826 60.1172C730.119 59.8711 730.477 59.5938 730.898 59.2852C731.203 59.0664 731.457 58.8574 731.66 58.6582C731.867 58.459 732.033 58.2598 732.158 58.0605C732.283 57.8613 732.371 57.6602 732.422 57.457C732.477 57.25 732.504 57.0312 732.504 56.8008ZM740.426 58.7637C740.426 59.4668 740.361 60.0898 740.232 60.6328C740.107 61.1758 739.924 61.6348 739.682 62.0098C739.443 62.3809 739.148 62.6641 738.797 62.8594C738.449 63.0508 738.053 63.1465 737.607 63.1465C737.186 63.1465 736.809 63.0547 736.477 62.8711C736.148 62.6836 735.871 62.4121 735.645 62.0566C735.418 61.7012 735.246 61.2656 735.129 60.75C735.012 60.2305 734.953 59.6367 734.953 58.9688C734.953 58.2344 735.014 57.5859 735.135 57.0234C735.26 56.4609 735.441 55.9902 735.68 55.6113C735.918 55.2285 736.213 54.9414 736.564 54.75C736.92 54.5547 737.326 54.457 737.783 54.457C739.545 54.457 740.426 55.8926 740.426 58.7637ZM739.441 58.8574C739.441 56.4668 738.873 55.2715 737.736 55.2715C736.537 55.2715 735.938 56.4883 735.938 58.9219C735.938 61.1914 736.525 62.3262 737.701 62.3262C738.861 62.3262 739.441 61.1699 739.441 58.8574ZM745.441 56.8008C745.441 56.543 745.4 56.3184 745.318 56.127C745.24 55.9355 745.131 55.7773 744.99 55.6523C744.854 55.5234 744.691 55.4277 744.504 55.3652C744.316 55.3027 744.113 55.2715 743.895 55.2715C743.707 55.2715 743.523 55.2969 743.344 55.3477C743.164 55.3984 742.988 55.4688 742.816 55.5586C742.648 55.6484 742.484 55.7559 742.324 55.8809C742.168 56.0059 742.021 56.1445 741.885 56.2969V55.2656C742.154 55.0039 742.455 54.8047 742.787 54.668C743.123 54.5273 743.531 54.457 744.012 54.457C744.355 54.457 744.674 54.5078 744.967 54.6094C745.26 54.707 745.514 54.8516 745.729 55.043C745.943 55.2344 746.111 55.4707 746.232 55.752C746.357 56.0332 746.42 56.3555 746.42 56.7188C746.42 57.0508 746.381 57.3516 746.303 57.6211C746.229 57.8906 746.113 58.1445 745.957 58.3828C745.805 58.6211 745.611 58.8496 745.377 59.0684C745.143 59.2871 744.867 59.5098 744.551 59.7363C744.156 60.0176 743.83 60.2578 743.572 60.457C743.318 60.6562 743.115 60.8438 742.963 61.0195C742.814 61.1914 742.709 61.3652 742.646 61.541C742.588 61.7129 742.559 61.9121 742.559 62.1387H746.742V63H741.557V62.584C741.557 62.2246 741.596 61.9082 741.674 61.6348C741.752 61.3613 741.881 61.1016 742.061 60.8555C742.24 60.6094 742.475 60.3633 742.764 60.1172C743.057 59.8711 743.414 59.5938 743.836 59.2852C744.141 59.0664 744.395 58.8574 744.598 58.6582C744.805 58.459 744.971 58.2598 745.096 58.0605C745.221 57.8613 745.309 57.6602 745.359 57.457C745.414 57.25 745.441 57.0312 745.441 56.8008ZM751.629 63H750.668V55.7402C750.594 55.8145 750.484 55.9004 750.34 55.998C750.199 56.0918 750.039 56.1855 749.859 56.2793C749.684 56.373 749.496 56.4609 749.297 56.543C749.102 56.625 748.91 56.6895 748.723 56.7363V55.7637C748.934 55.7051 749.156 55.627 749.391 55.5293C749.629 55.4277 749.861 55.3164 750.088 55.1953C750.318 55.0703 750.535 54.9414 750.738 54.8086C750.941 54.6719 751.117 54.5391 751.266 54.4102H751.629V63ZM759.234 63H758.25V54.5977H759.234V63ZM766.301 63H765.34V59.5781C765.34 58.3047 764.875 57.668 763.945 57.668C763.465 57.668 763.066 57.8496 762.75 58.2129C762.438 58.5723 762.281 59.0273 762.281 59.5781V63H761.32V57H762.281V57.9961H762.305C762.758 57.2383 763.414 56.8594 764.273 56.8594C764.93 56.8594 765.432 57.0723 765.779 57.498C766.127 57.9199 766.301 58.5312 766.301 59.332V63ZM767.754 62.7832V61.752C768.277 62.1387 768.854 62.332 769.482 62.332C770.326 62.332 770.748 62.0508 770.748 61.4883C770.748 61.3281 770.711 61.1934 770.637 61.084C770.566 60.9707 770.469 60.8711 770.344 60.7852C770.223 60.6992 770.078 60.623 769.91 60.5566C769.746 60.4863 769.568 60.4141 769.377 60.3398C769.111 60.2344 768.877 60.1289 768.674 60.0234C768.475 59.9141 768.307 59.793 768.17 59.6602C768.037 59.5234 767.936 59.3691 767.865 59.1973C767.799 59.0254 767.766 58.8242 767.766 58.5938C767.766 58.3125 767.83 58.0645 767.959 57.8496C768.088 57.6309 768.26 57.4492 768.475 57.3047C768.689 57.1562 768.934 57.0449 769.207 56.9707C769.484 56.8965 769.77 56.8594 770.062 56.8594C770.582 56.8594 771.047 56.9492 771.457 57.1289V58.1016C771.016 57.8125 770.508 57.668 769.934 57.668C769.754 57.668 769.592 57.6895 769.447 57.7324C769.303 57.7715 769.178 57.8281 769.072 57.9023C768.971 57.9766 768.891 58.0664 768.832 58.1719C768.777 58.2734 768.75 58.3867 768.75 58.5117C768.75 58.668 768.777 58.7988 768.832 58.9043C768.891 59.0098 768.975 59.1035 769.084 59.1855C769.193 59.2676 769.326 59.3418 769.482 59.4082C769.639 59.4746 769.816 59.5469 770.016 59.625C770.281 59.7266 770.52 59.832 770.73 59.9414C770.941 60.0469 771.121 60.168 771.27 60.3047C771.418 60.4375 771.531 60.5918 771.609 60.7676C771.691 60.9434 771.732 61.1523 771.732 61.3945C771.732 61.6914 771.666 61.9492 771.533 62.168C771.404 62.3867 771.23 62.5684 771.012 62.7129C770.793 62.8574 770.541 62.9648 770.256 63.0352C769.971 63.1055 769.672 63.1406 769.359 63.1406C768.742 63.1406 768.207 63.0215 767.754 62.7832ZM775.998 62.9414C775.771 63.0664 775.473 63.1289 775.102 63.1289C774.051 63.1289 773.525 62.543 773.525 61.3711V57.8203H772.494V57H773.525V55.5352L774.486 55.2246V57H775.998V57.8203H774.486V61.2012C774.486 61.6035 774.555 61.8906 774.691 62.0625C774.828 62.2344 775.055 62.3203 775.371 62.3203C775.613 62.3203 775.822 62.2539 775.998 62.1211V62.9414ZM781.576 63H780.615V62.0625H780.592C780.174 62.7812 779.559 63.1406 778.746 63.1406C778.148 63.1406 777.68 62.9824 777.34 62.666C777.004 62.3496 776.836 61.9297 776.836 61.4062C776.836 60.2852 777.496 59.6328 778.816 59.4492L780.615 59.1973C780.615 58.1777 780.203 57.668 779.379 57.668C778.656 57.668 778.004 57.9141 777.422 58.4062V57.4219C778.012 57.0469 778.691 56.8594 779.461 56.8594C780.871 56.8594 781.576 57.6055 781.576 59.0977V63ZM780.615 59.9648L779.168 60.1641C778.723 60.2266 778.387 60.3379 778.16 60.498C777.934 60.6543 777.82 60.9336 777.82 61.3359C777.82 61.6289 777.924 61.8691 778.131 62.0566C778.342 62.2402 778.621 62.332 778.969 62.332C779.445 62.332 779.838 62.166 780.146 61.834C780.459 61.498 780.615 61.0742 780.615 60.5625V59.9648ZM788.508 62.5195C788.508 64.7227 787.453 65.8242 785.344 65.8242C784.602 65.8242 783.953 65.6836 783.398 65.4023V64.4414C784.074 64.8164 784.719 65.0039 785.332 65.0039C786.809 65.0039 787.547 64.2188 787.547 62.6484V61.9922H787.523C787.066 62.7578 786.379 63.1406 785.461 63.1406C784.715 63.1406 784.113 62.875 783.656 62.3438C783.203 61.8086 782.977 61.0918 782.977 60.1934C782.977 59.1738 783.221 58.3633 783.709 57.7617C784.201 57.1602 784.873 56.8594 785.725 56.8594C786.533 56.8594 787.133 57.1836 787.523 57.832H787.547V57H788.508V62.5195ZM787.547 60.2871V59.4023C787.547 58.9258 787.385 58.5176 787.061 58.1777C786.74 57.8379 786.34 57.668 785.859 57.668C785.266 57.668 784.801 57.8848 784.465 58.3184C784.129 58.748 783.961 59.3516 783.961 60.1289C783.961 60.7969 784.121 61.332 784.441 61.7344C784.766 62.1328 785.193 62.332 785.725 62.332C786.264 62.332 786.701 62.1406 787.037 61.7578C787.377 61.375 787.547 60.8848 787.547 60.2871ZM793.582 57.9727C793.414 57.8438 793.172 57.7793 792.855 57.7793C792.445 57.7793 792.102 57.9727 791.824 58.3594C791.551 58.7461 791.414 59.2734 791.414 59.9414V63H790.453V57H791.414V58.2363H791.438C791.574 57.8145 791.783 57.4863 792.064 57.252C792.346 57.0137 792.66 56.8945 793.008 56.8945C793.258 56.8945 793.449 56.9219 793.582 56.9766V57.9727ZM798.92 63H797.959V62.0625H797.936C797.518 62.7812 796.902 63.1406 796.09 63.1406C795.492 63.1406 795.023 62.9824 794.684 62.666C794.348 62.3496 794.18 61.9297 794.18 61.4062C794.18 60.2852 794.84 59.6328 796.16 59.4492L797.959 59.1973C797.959 58.1777 797.547 57.668 796.723 57.668C796 57.668 795.348 57.9141 794.766 58.4062V57.4219C795.355 57.0469 796.035 56.8594 796.805 56.8594C798.215 56.8594 798.92 57.6055 798.92 59.0977V63ZM797.959 59.9648L796.512 60.1641C796.066 60.2266 795.73 60.3379 795.504 60.498C795.277 60.6543 795.164 60.9336 795.164 61.3359C795.164 61.6289 795.268 61.8691 795.475 62.0566C795.686 62.2402 795.965 62.332 796.312 62.332C796.789 62.332 797.182 62.166 797.49 61.834C797.803 61.498 797.959 61.0742 797.959 60.5625V59.9648ZM809.25 63H808.289V59.5547C808.289 58.8906 808.186 58.4102 807.979 58.1133C807.775 57.8164 807.432 57.668 806.947 57.668C806.537 57.668 806.188 57.8555 805.898 58.2305C805.613 58.6055 805.471 59.0547 805.471 59.5781V63H804.51V59.4375C804.51 58.2578 804.055 57.668 803.145 57.668C802.723 57.668 802.375 57.8457 802.102 58.2012C801.828 58.5527 801.691 59.0117 801.691 59.5781V63H800.73V57H801.691V57.9492H801.715C802.141 57.2227 802.762 56.8594 803.578 56.8594C803.988 56.8594 804.346 56.9746 804.65 57.2051C804.955 57.4316 805.164 57.7305 805.277 58.1016C805.723 57.2734 806.387 56.8594 807.27 56.8594C808.59 56.8594 809.25 57.6738 809.25 59.3027V63ZM818.754 55.4883H815.473V58.3945H818.508V59.2793H815.473V63H814.488V54.5977H818.754V55.4883ZM823.348 57.9727C823.18 57.8438 822.938 57.7793 822.621 57.7793C822.211 57.7793 821.867 57.9727 821.59 58.3594C821.316 58.7461 821.18 59.2734 821.18 59.9414V63H820.219V57H821.18V58.2363H821.203C821.34 57.8145 821.549 57.4863 821.83 57.252C822.111 57.0137 822.426 56.8945 822.773 56.8945C823.023 56.8945 823.215 56.9219 823.348 56.9766V57.9727ZM826.898 63.1406C826.012 63.1406 825.303 62.8613 824.771 62.3027C824.244 61.7402 823.98 60.9961 823.98 60.0703C823.98 59.0625 824.256 58.2754 824.807 57.709C825.357 57.1426 826.102 56.8594 827.039 56.8594C827.934 56.8594 828.631 57.1348 829.131 57.6855C829.635 58.2363 829.887 59 829.887 59.9766C829.887 60.9336 829.615 61.7012 829.072 62.2793C828.533 62.8535 827.809 63.1406 826.898 63.1406ZM826.969 57.668C826.352 57.668 825.863 57.8789 825.504 58.3008C825.145 58.7188 824.965 59.2969 824.965 60.0352C824.965 60.7461 825.146 61.3066 825.51 61.7168C825.873 62.127 826.359 62.332 826.969 62.332C827.59 62.332 828.066 62.1309 828.398 61.7285C828.734 61.3262 828.902 60.7539 828.902 60.0117C828.902 59.2617 828.734 58.6836 828.398 58.2773C828.066 57.8711 827.59 57.668 826.969 57.668ZM839.941 63H838.98V59.5547C838.98 58.8906 838.877 58.4102 838.67 58.1133C838.467 57.8164 838.123 57.668 837.639 57.668C837.229 57.668 836.879 57.8555 836.59 58.2305C836.305 58.6055 836.162 59.0547 836.162 59.5781V63H835.201V59.4375C835.201 58.2578 834.746 57.668 833.836 57.668C833.414 57.668 833.066 57.8457 832.793 58.2012C832.52 58.5527 832.383 59.0117 832.383 59.5781V63H831.422V57H832.383V57.9492H832.406C832.832 57.2227 833.453 56.8594 834.27 56.8594C834.68 56.8594 835.037 56.9746 835.342 57.2051C835.646 57.4316 835.855 57.7305 835.969 58.1016C836.414 57.2734 837.078 56.8594 837.961 56.8594C839.281 56.8594 839.941 57.6738 839.941 59.3027V63ZM853.746 63H852.768V57.3633C852.768 56.918 852.795 56.373 852.85 55.7285H852.826C852.732 56.1074 852.648 56.3789 852.574 56.543L849.703 63H849.223L846.357 56.5898C846.275 56.4023 846.191 56.1152 846.105 55.7285H846.082C846.113 56.0645 846.129 56.6133 846.129 57.375V63H845.18V54.5977H846.48L849.059 60.457C849.258 60.9062 849.387 61.2422 849.445 61.4648H849.48C849.648 61.0039 849.783 60.6602 849.885 60.4336L852.516 54.5977H853.746V63ZM860.654 60.2402H856.418C856.434 60.9082 856.613 61.4238 856.957 61.7871C857.301 62.1504 857.773 62.332 858.375 62.332C859.051 62.332 859.672 62.1094 860.238 61.6641V62.5664C859.711 62.9492 859.014 63.1406 858.146 63.1406C857.299 63.1406 856.633 62.8691 856.148 62.3262C855.664 61.7793 855.422 61.0117 855.422 60.0234C855.422 59.0898 855.686 58.3301 856.213 57.7441C856.744 57.1543 857.402 56.8594 858.188 56.8594C858.973 56.8594 859.58 57.1133 860.01 57.6211C860.439 58.1289 860.654 58.834 860.654 59.7363V60.2402ZM859.67 59.4258C859.666 58.8711 859.531 58.4395 859.266 58.1309C859.004 57.8223 858.639 57.668 858.17 57.668C857.717 57.668 857.332 57.8301 857.016 58.1543C856.699 58.4785 856.504 58.9023 856.43 59.4258H859.67ZM864.896 62.9414C864.67 63.0664 864.371 63.1289 864 63.1289C862.949 63.1289 862.424 62.543 862.424 61.3711V57.8203H861.393V57H862.424V55.5352L863.385 55.2246V57H864.896V57.8203H863.385V61.2012C863.385 61.6035 863.453 61.8906 863.59 62.0625C863.727 62.2344 863.953 62.3203 864.27 62.3203C864.512 62.3203 864.721 62.2539 864.896 62.1211V62.9414ZM870.475 63H869.514V62.0625H869.49C869.072 62.7812 868.457 63.1406 867.645 63.1406C867.047 63.1406 866.578 62.9824 866.238 62.666C865.902 62.3496 865.734 61.9297 865.734 61.4062C865.734 60.2852 866.395 59.6328 867.715 59.4492L869.514 59.1973C869.514 58.1777 869.102 57.668 868.277 57.668C867.555 57.668 866.902 57.9141 866.32 58.4062V57.4219C866.91 57.0469 867.59 56.8594 868.359 56.8594C869.77 56.8594 870.475 57.6055 870.475 59.0977V63ZM869.514 59.9648L868.066 60.1641C867.621 60.2266 867.285 60.3379 867.059 60.498C866.832 60.6543 866.719 60.9336 866.719 61.3359C866.719 61.6289 866.822 61.8691 867.029 62.0566C867.24 62.2402 867.52 62.332 867.867 62.332C868.344 62.332 868.736 62.166 869.045 61.834C869.357 61.498 869.514 61.0742 869.514 60.5625V59.9648Z" fill="#8E8E8E"/>
</svg>
